Coordinates
version=1
nRows=11
nColumns=63
inDegrees=yes

Units are S.I. units (second, meters, Newtons, ...)
If the header above contains a line with 'inDegrees', this indicates whether rotational values are in degrees (yes) or radians (no).

endheader
time	pelvis_tilt	pelvis_list	pelvis_rotation	pelvis_tx	pelvis_ty	pelvis_tz	hip_flexion_r	hip_adduction_r	hip_rotation_r	knee_angle_r	knee_angle_r_beta	ankle_angle_r	subtalar_angle_r	mtp_angle_r	hip_flexion_l	hip_adduction_l	hip_rotation_l	knee_angle_l	knee_angle_l_beta	ankle_angle_l	subtalar_angle_l	mtp_angle_l	L5_S1_Flex_Ext	L5_S1_Lat_Bending	L5_S1_axial_rotation	L4_L5_Flex_Ext	L4_L5_Lat_Bending	L4_L5_axial_rotation	L3_L4_Flex_Ext	L3_L4_Lat_Bending	L3_L4_axial_rotation	L2_L3_Flex_Ext	L2_L3_Lat_Bending	L2_L3_axial_rotation	L1_L2_Flex_Ext	L1_L2_Lat_Bending	L1_L2_axial_rotation	L1_T12_Flex_Ext	L1_T12_Lat_Bending	L1_T12_axial_rotation	Abs_r3	Abs_r2	Abs_r1	Abs_t1	Abs_t2	neck_flexion	neck_bending	neck_rotation	arm_flex_r	arm_add_r	arm_rot_r	elbow_flex_r	pro_sup_r	wrist_flex_r	wrist_dev_r	arm_flex_l	arm_add_l	arm_rot_l	elbow_flex_l	pro_sup_l	wrist_flex_l	wrist_dev_l
      2.76271186	      0.48411741	     -5.07106188	     85.33422767	      0.21404053	      0.87726160	      0.65225008	      0.28298246	      0.05127915	    -18.72833040	      8.23867761	      0.14379205	     27.36608658	     17.38772249	      0.00000000	     -0.42491025	     -2.40176920	      0.08512196	      8.89969190	      0.15532893	     26.19075528	     -0.17469259	      0.00000000	     -0.02189589	      0.30555478	      0.80561919	     -0.04066286	      0.40638786	      0.85597039	     -0.03597276	      0.74292589	      0.85597039	     -0.02502482	      0.74292589	      0.70491679	     -0.02033253	      0.62308731	      0.65456559	     -0.01251131	      0.47330435	      0.60421439	     -0.15640018	      3.45649678	      4.48061224	      0.00000000	      0.00000000	     16.85418344	     -4.53619484	     -4.37581143	      9.48517099	     -1.06369569	    167.93004214	      0.46919029	      3.14455084	     -4.54809042	    -11.97776336	     10.83444439	     -2.55241515	    143.57849852	     11.30866902	      6.85065092	    -10.23334286	    -13.14603198
      2.77966102	      0.50988999	     -5.05419704	     85.36233556	      0.21398977	      0.87726989	      0.65223633	      0.27263602	      0.05614448	    -18.86430127	      8.28760559	      0.14464600	     27.20242455	     17.53732165	      0.00000000	     -0.47452392	     -2.42699075	      0.13097942	      8.87860388	      0.15496087	     26.10404822	     -0.09730985	      0.00000000	     -0.02074648	      0.30751981	      0.80026968	     -0.03852828	      0.40900135	      0.85028654	     -0.03408438	      0.74770367	      0.85028654	     -0.02371115	      0.74770367	      0.70023597	     -0.01926518	      0.62709440	      0.65021912	     -0.01185454	      0.47634819	      0.60020226	     -0.14819000	      3.47872560	      4.45085988	      0.00000000	      0.00000000	     16.85457520	     -4.49203328	     -4.50050004	      9.47134521	     -1.07563033	    167.79502985	      0.46445125	      3.29147827	     -4.57725491	    -11.98105314	     10.80981144	     -2.51057465	    144.12998235	     11.17947563	      6.49851370	    -10.10685596	    -13.22584453
      2.79661017	      0.54240684	     -5.02403869	     85.34313441	      0.21399055	      0.87727284	      0.65196311	      0.24007777	      0.07003077	    -18.95744887	      8.33702045	      0.14550846	     27.03905588	     17.59105859	      0.00000000	     -0.55806802	     -2.41663807	      0.72825344	      8.89187395	      0.15519248	     25.88284324	     -0.82675472	      0.00000000	     -0.01757523	      0.30981464	      0.80225789	     -0.03263897	      0.41205347	      0.85239901	     -0.02887435	      0.75328331	      0.85239901	     -0.02008674	      0.75328331	      0.70197566	     -0.01632036	      0.63177401	      0.65183454	     -0.01004249	      0.47990287	      0.60169342	     -0.12553814	      3.50468515	      4.46191773	      0.00000000	      0.00000000	     16.89289821	     -4.68476239	     -4.86703774	      9.44050733	     -1.09497876	    167.82448974	      0.46512753	      3.33862521	     -4.54739468	    -12.02807227	     10.74159893	     -2.42326135	    145.06283893	     10.99580916	      6.06931075	    -10.30462742	    -13.32994183
      2.81355932	      0.62083801	     -5.01783701	     85.24020021	      0.21409025	      0.87729556	      0.65184946	      0.23952826	      0.13286438	    -19.03672240	      8.38826745	      0.14640289	     26.92053851	     17.73018148	      0.00000000	     -0.60964727	     -2.50955022	      0.49114892	      8.95641586	      0.15631895	     25.78579192	     -0.50937539	      0.00000000	     -0.00996123	      0.31735143	      0.82552378	     -0.01849900	      0.42207740	      0.87711902	     -0.01636531	      0.77160826	      0.87711902	     -0.01138469	      0.77160826	      0.72233331	     -0.00925000	      0.64714303	      0.67073807	     -0.00569185	      0.49157736	      0.61914284	     -0.07115207	      3.58994283	      4.59131561	      0.00000000	      0.00000000	     16.81399076	     -5.04378731	     -5.48378379	      9.40668465	     -1.11927935	    168.00111369	      0.46729686	      3.32106284	     -4.71655441	    -11.99184267	     10.74505014	     -2.53191519	    143.15996227	     11.26616648	      8.48561149	    -11.13115812	    -13.12462460
      2.83050847	      0.70908708	     -5.00723543	     85.41588738	      0.21368045	      0.87736263	      0.65156365	      0.19305978	      0.21224605	    -19.19029033	      8.41093852	      0.14679857	     26.86141108	     17.66742500	      0.00000000	     -0.67639488	     -2.48835758	      2.11400414	      8.92688252	      0.15580349	     25.15143052	     -2.43279502	      0.00000000	     -0.00032248	      0.32887702	      0.78053749	     -0.00059888	      0.43740643	      0.82932108	     -0.00052980	      0.79963158	      0.82932108	     -0.00036856	      0.79963158	      0.68297030	     -0.00029945	      0.67064601	      0.63418671	     -0.00018426	      0.50943050	      0.58540312	     -0.00230343	      3.72032257	      4.34111536	      0.00000000	      0.00000000	     16.75692410	     -5.23116646	     -5.75199695	      9.39442491	     -1.15102252	    168.41820791	      0.46999198	      3.13245045	     -4.76166181	    -11.95579975	     10.65020064	     -2.28273746	    145.46840405	     10.79286787	      7.23167965	    -11.32306623	    -13.15203716
      2.84745763	      0.80062548	     -5.00615514	     85.31281387	      0.21367250	      0.87739033	      0.65127769	      0.18587673	      0.29890213	    -18.97136069	      8.44994757	      0.14747941	     26.90444587	     17.51282164	      0.00000000	     -0.78200409	     -2.50350304	      2.96321746	      8.87441421	      0.15488775	     24.60010480	     -3.74212708	      0.00000000	      0.01042379	      0.34060921	      0.79605053	      0.01935803	      0.45301026	      0.84580369	      0.01712525	      0.82815724	      0.84580369	      0.01191335	      0.82815724	      0.69654421	      0.00967953	      0.69457031	      0.64679105	      0.00595616	      0.52760367	      0.59703790	      0.07445611	      3.85303955	      4.42739422	      0.00000000	      0.00000000	     16.64772580	     -5.58616374	     -6.22351577	      9.34440021	     -1.20349785	    168.42081202	      0.46606104	      3.10903805	     -4.69698358	    -11.97072900	     10.55748853	     -2.01250788	    147.88501943	     10.26117733	      6.33532726	    -11.58726611	    -13.07657927
      2.86440678	      0.84423028	     -5.00959363	     85.29681408	      0.21353506	      0.87740206	      0.65110558	      0.19593871	      0.32716772	    -18.92604788	      8.51186393	      0.14856005	     26.97977782	     17.44007678	      0.00000000	     -0.85669573	     -2.44747318	      4.22494320	      8.81406421	      0.15383444	     23.93789068	     -5.54782764	      0.00000000	      0.01923042	      0.34598526	      0.80419182	      0.03571281	      0.46016039	      0.85445381	      0.03159365	      0.84122855	      0.85445381	      0.02197845	      0.84122855	      0.70366784	      0.01785737	      0.70553313	      0.65340585	      0.01098826	      0.53593116	      0.60314386	      0.13736095	      3.91385441	      4.47267363	      0.00000000	      0.00000000	     16.53661929	     -5.93665093	     -6.79408961	      9.27107522	     -1.23918930	    167.76359672	      0.46738782	      3.33832611	     -4.60716655	    -12.04106518	     10.51825973	     -1.78633323	    150.17478108	      9.83053630	      5.41495592	    -11.86177525	    -12.97538235
      2.88135593	      0.88840631	     -4.99749788	     85.25635412	      0.21362506	      0.87742106	      0.65100178	      0.18276952	      0.37570041	    -18.78820822	      8.54288291	      0.14910143	     27.03349780	     17.32708481	      0.00000000	     -0.89157769	     -2.51831475	      3.83246370	      8.84075857	      0.15430035	     23.92965118	     -5.00994762	      0.00000000	      0.02235049	      0.35133006	      0.79557602	      0.04150710	      0.46726898	      0.84529952	      0.03671962	      0.85422391	      0.84529952	      0.02554438	      0.85422391	      0.69612901	      0.02075467	      0.71643226	      0.64640551	      0.01277107	      0.54421027	      0.59668201	      0.15964732	      3.97431593	      4.42475512	      0.00000000	      0.00000000	     16.48102772	     -5.85153333	     -6.63827600	      9.29948657	     -1.23834181	    168.17883655	      0.46478009	      3.16543162	     -4.52480423	    -11.97119280	     10.44867719	     -1.73277637	    150.55744126	      9.63258980	      5.65864591	    -12.16955630	    -12.89509969
      2.89830508	      0.92833599	     -4.99678018	     85.28242996	      0.21352358	      0.87742204	      0.65091343	      0.18011391	      0.40690734	    -18.82472104	      8.57232518	      0.14961530	     27.10858285	     17.37588650	      0.00000000	     -0.90554835	     -2.51483142	      4.43057926	      8.83625017	      0.15422166	     23.68399928	     -5.85144266	      0.00000000	      0.02342395	      0.35516433	      0.79092769	      0.04350062	      0.47236856	      0.84036067	      0.03848321	      0.86354655	      0.84036067	      0.02677123	      0.86354655	      0.69206173	      0.02175148	      0.72425110	      0.64262875	      0.01338445	      0.55014955	      0.59319577	      0.16731494	      4.01768993	      4.39890253	      0.00000000	      0.00000000	     16.43788814	     -6.11221966	     -6.99993106	      9.27462775	     -1.25539432	    167.89254371	      0.46600870	      3.34882921	     -4.55834941	    -11.99960843	     10.40943710	     -1.58503260	    152.12222977	      9.26322049	      5.00713129	    -12.10162117	    -12.73963572
      2.91525424	      0.94070208	     -5.01306869	     85.28612281	      0.21363742	      0.87737202	      0.65088370	      0.19256090	      0.43682731	    -18.69740993	      8.56250286	      0.14944387	     27.20562503	     17.29831345	      0.00000000	     -0.87092081	     -2.57852335	      3.84720919	      8.87291703	      0.15486162	     23.92188793	     -5.01597990	      0.00000000	      0.02447492	      0.35523922	      0.78304918	      0.04545237	      0.47246817	      0.83198975	      0.04020984	      0.86372865	      0.83198975	      0.02797238	      0.86372865	      0.68516803	      0.02272741	      0.72440382	      0.63622745	      0.01398497	      0.55026556	      0.58728688	      0.17482190	      4.01853714	      4.35508460	      0.00000000	      0.00000000	     16.46906006	     -6.01921850	     -6.93103228	      9.28604131	     -1.24116276	    168.03288081	      0.46378136	      3.26218539	     -4.57330344	    -12.03405119	     10.35859495	     -1.57859162	    152.38656005	      9.12007555	      4.93775044	    -12.06509139	    -12.76495331
      2.93220339	      0.94897534	     -5.03226162	     85.31477096	      0.21367182	      0.87730058	      0.65084738	      0.20701754	      0.44917595	    -18.76877508	      8.55640750	      0.14933748	     27.35706237	     17.45608793	      0.00000000	     -0.84376809	     -2.60698412	      3.70499338	      8.87983583	      0.15498237	     24.04907201	     -4.77134803	      0.00000000	      0.02676871	      0.35552565	      0.77513113	      0.04971218	      0.47284912	      0.82357683	      0.04397832	      0.86442507	      0.82357683	      0.03059396	      0.86442507	      0.67823974	      0.02485743	      0.72498791	      0.62979405	      0.01529564	      0.55070923	      0.58134835	      0.19120625	      4.02177727	      4.31104683	      0.00000000	      0.00000000	     16.50647208	     -5.99588415	     -6.89171651	      9.28525039	     -1.23086655	    168.04192238	      0.46598279	      3.35981731	     -4.64564832	    -12.03351483	     10.36332634	     -1.67111578	    151.14024904	      9.29329343	      5.84467568	    -12.16700544	    -12.77339930
